<?xml version="1.0" encoding="utf-8"?>
<!-- Generator: Adobe Illustrator 22.1.0, SVG Export Plug-In . SVG Version: 6.00 Build 0)  -->
<svg version="1.1" id="Layer_1" xmlns="http://www.w3.org/2000/svg" xmlns:xlink="http://www.w3.org/1999/xlink" x="0px" y="0px"
	 viewBox="0 0 280 60" style="enable-background:new 0 0 280 60;" xml:space="preserve">
<style type="text/css">
	.st0{fill:#FFFFFF;}
</style>
<g>
	<g>
		<path class="st0" d="M132.1,31.3c-1,0-1.9-0.3-2.5-1c-0.6-0.6-1-1.6-1-2.8v-4.9h0.9v4.9c0,0.9,0.2,1.6,0.7,2.1
			c0.5,0.5,1.1,0.8,1.9,0.8c0.8,0,1.4-0.3,1.9-0.8c0.5-0.5,0.7-1.2,0.7-2.1v-4.9h0.9v4.9c0,1.2-0.3,2.1-1,2.8
			C134,30.9,133.1,31.3,132.1,31.3z"/>
		<path class="st0" d="M138.7,27.2v4h-0.9v-5.9h0.9v0.9c0.6-0.7,1.4-1,2.3-1c0.7,0,1.3,0.2,1.7,0.6c0.4,0.4,0.6,1,0.6,1.8v3.6h-0.9
			v-3.4c0-1.2-0.6-1.8-1.7-1.8c-0.4,0-0.8,0.1-1.2,0.4C139.2,26.6,138.9,26.8,138.7,27.2z"/>
		<path class="st0" d="M145.5,23.7c-0.1-0.1-0.2-0.3-0.2-0.4c0-0.2,0.1-0.3,0.2-0.4c0.1-0.1,0.3-0.2,0.4-0.2c0.2,0,0.3,0.1,0.4,0.2
			c0.1,0.1,0.2,0.3,0.2,0.4c0,0.2-0.1,0.3-0.2,0.4c-0.1,0.1-0.3,0.2-0.4,0.2C145.8,23.8,145.6,23.8,145.5,23.7z M146.4,31.1h-0.9
			v-5.9h0.9V31.1z"/>
		<path class="st0" d="M151.5,31.2h-0.8l-2.7-5.9h1l2.1,4.7l2.1-4.7h0.9L151.5,31.2z"/>
		<path class="st0" d="M158.4,31.3c-0.9,0-1.7-0.3-2.3-0.9c-0.6-0.6-0.9-1.3-0.9-2.2c0-0.9,0.3-1.6,0.8-2.2c0.6-0.6,1.3-0.9,2.1-0.9
			c0.5,0,0.9,0.1,1.2,0.3c0.4,0.2,0.7,0.4,0.9,0.7c0.2,0.3,0.4,0.6,0.5,1c0.1,0.3,0.2,0.7,0.2,1v0.2h-4.8c0,0.6,0.3,1.1,0.8,1.5
			c0.5,0.4,1,0.6,1.7,0.6c0.7,0,1.3-0.2,1.9-0.5v0.8C160,31.1,159.3,31.3,158.4,31.3z M156.1,27.7h3.9c0-0.5-0.2-0.9-0.5-1.2
			c-0.3-0.4-0.8-0.6-1.4-0.6c-0.6,0-1.1,0.2-1.4,0.5C156.4,26.8,156.2,27.2,156.1,27.7z"/>
		<path class="st0" d="M163.6,31.1h-0.9v-5.9h0.9v1.1c0.2-0.4,0.5-0.7,1-0.9c0.4-0.2,0.9-0.3,1.4-0.3V26c-0.3,0-0.5,0-0.7,0.1
			c-0.4,0.1-0.7,0.3-1,0.5c-0.3,0.2-0.5,0.5-0.6,0.8V31.1z"/>
		<path class="st0" d="M169.3,31.3c-0.5,0-0.9-0.1-1.4-0.2c-0.4-0.1-0.8-0.3-1-0.4v-0.9c0.7,0.5,1.5,0.7,2.4,0.7
			c0.5,0,0.9-0.1,1.2-0.2c0.3-0.2,0.4-0.4,0.4-0.7c0-0.3-0.1-0.5-0.4-0.6c-0.1-0.1-0.3-0.1-0.6-0.2c-0.1,0-0.2-0.1-0.4-0.1
			c-0.2-0.1-0.4-0.1-0.4-0.1c-0.7-0.2-1.3-0.4-1.6-0.7c-0.3-0.3-0.5-0.6-0.5-1.1c0-0.5,0.2-0.9,0.6-1.2c0.4-0.3,1-0.4,1.7-0.4
			c0.9,0,1.6,0.2,2.1,0.5v0.9c-0.7-0.4-1.4-0.6-2.1-0.6c-0.5,0-0.9,0.1-1.1,0.2c-0.3,0.2-0.4,0.4-0.4,0.6c0,0.3,0.1,0.5,0.4,0.7
			c0.1,0,0.1,0,0.2,0.1c0.1,0,0.2,0.1,0.3,0.1l0.3,0.1c0.2,0.1,0.4,0.1,0.6,0.1c0.7,0.2,1.3,0.4,1.6,0.7c0.3,0.3,0.5,0.6,0.5,1.1
			c0,0.5-0.2,1-0.7,1.2C170.6,31.1,170,31.3,169.3,31.3z"/>
		<path class="st0" d="M173.8,23.7c-0.1-0.1-0.2-0.3-0.2-0.4c0-0.2,0.1-0.3,0.2-0.4c0.1-0.1,0.3-0.2,0.4-0.2c0.2,0,0.3,0.1,0.4,0.2
			c0.1,0.1,0.2,0.3,0.2,0.4c0,0.2-0.1,0.3-0.2,0.4c-0.1,0.1-0.3,0.2-0.4,0.2C174.1,23.8,173.9,23.8,173.8,23.7z M174.7,31.1h-0.9
			v-5.9h0.9V31.1z"/>
		<path class="st0" d="M181.8,26.2v-3.6h0.9v8.5h-0.9v-0.9c-0.6,0.7-1.3,1.1-2.3,1.1c-0.9,0-1.6-0.3-2.1-0.9
			c-0.6-0.6-0.8-1.3-0.8-2.2c0-0.9,0.3-1.6,0.8-2.2c0.6-0.6,1.3-0.9,2.1-0.9C180.5,25.1,181.3,25.5,181.8,26.2z M181.8,29.2v-1.9
			c-0.2-0.4-0.4-0.7-0.8-1c-0.4-0.2-0.8-0.4-1.2-0.4c-0.7,0-1.2,0.2-1.6,0.7c-0.4,0.4-0.6,1-0.6,1.6c0,0.6,0.2,1.2,0.6,1.6
			c0.4,0.4,1,0.7,1.6,0.7c0.4,0,0.8-0.1,1.2-0.4C181.4,29.9,181.6,29.5,181.8,29.2z"/>
		<path class="st0" d="M186.6,31.3c-0.6,0-1.2-0.2-1.6-0.5c-0.4-0.4-0.6-0.8-0.6-1.4c0-0.6,0.2-1.1,0.7-1.4c0.5-0.3,1-0.5,1.7-0.5
			c0.8,0,1.5,0.2,2.1,0.6v-0.6c0-1-0.6-1.5-1.9-1.5c-0.7,0-1.3,0.2-1.9,0.6v-0.8c0.6-0.4,1.3-0.5,2.1-0.5c0.8,0,1.4,0.2,1.9,0.6
			c0.5,0.4,0.7,0.9,0.7,1.6v2.4c0,0.2,0.1,0.4,0.2,0.5c0.1,0.1,0.2,0.2,0.4,0.2c0.1,0,0.2,0,0.3-0.1V31c-0.1,0.1-0.3,0.1-0.6,0.1
			c-0.3,0-0.5-0.1-0.7-0.2c-0.2-0.2-0.3-0.4-0.4-0.7C188.4,30.9,187.6,31.3,186.6,31.3z M186.9,30.5c0.4,0,0.8-0.1,1.2-0.3
			c0.4-0.2,0.7-0.4,0.9-0.7v-0.8c-0.6-0.4-1.2-0.6-1.9-0.6c-0.5,0-1,0.1-1.3,0.3c-0.3,0.2-0.5,0.5-0.5,0.9c0,0.4,0.1,0.7,0.4,0.9
			C186,30.4,186.4,30.5,186.9,30.5z"/>
		<path class="st0" d="M197.1,26.2v-3.6h0.9v8.5h-0.9v-0.9c-0.6,0.7-1.3,1.1-2.3,1.1c-0.9,0-1.6-0.3-2.1-0.9
			c-0.6-0.6-0.8-1.3-0.8-2.2c0-0.9,0.3-1.6,0.8-2.2c0.6-0.6,1.3-0.9,2.1-0.9C195.7,25.1,196.5,25.5,197.1,26.2z M197.1,29.2v-1.9
			c-0.2-0.4-0.4-0.7-0.8-1c-0.4-0.2-0.8-0.4-1.2-0.4c-0.7,0-1.2,0.2-1.6,0.7c-0.4,0.4-0.6,1-0.6,1.6c0,0.6,0.2,1.2,0.6,1.6
			c0.4,0.4,1,0.7,1.6,0.7c0.4,0,0.8-0.1,1.2-0.4C196.6,29.9,196.9,29.5,197.1,29.2z"/>
		<path class="st0" d="M129.9,43.9h-1.3v-8.5h1.4l2.8,3.8l2.7-3.8h1.3v8.5h-1.3v-6.5l-2.4,3.2h-0.8l-2.4-3.2V43.9z"/>
		<path class="st0" d="M144.3,42.9c0.1,0,0.2,0,0.4-0.1v1c-0.2,0.1-0.4,0.2-0.8,0.2c-0.7,0-1.1-0.3-1.2-0.8
			c-0.5,0.6-1.3,0.9-2.2,0.9c-0.6,0-1.2-0.2-1.6-0.5c-0.4-0.3-0.6-0.8-0.6-1.5c0-0.6,0.2-1.1,0.7-1.5c0.5-0.3,1-0.5,1.7-0.5
			c0.7,0,1.4,0.2,1.9,0.5v-0.3c0-0.9-0.6-1.3-1.7-1.3c-0.7,0-1.3,0.2-1.9,0.5v-1.2c0.6-0.3,1.3-0.5,2.2-0.5c0.8,0,1.5,0.2,2,0.6
			c0.5,0.4,0.7,1,0.7,1.7v2.2c0,0.2,0,0.3,0.1,0.4C144.1,42.9,144.2,42.9,144.3,42.9z M142.5,42.2v-0.7c-0.5-0.3-1-0.4-1.6-0.4
			c-0.4,0-0.8,0.1-1,0.2c-0.2,0.2-0.4,0.4-0.4,0.7c0,0.3,0.1,0.5,0.3,0.7c0.2,0.2,0.5,0.2,0.9,0.2c0.3,0,0.6-0.1,0.9-0.2
			C142.1,42.6,142.3,42.5,142.5,42.2z"/>
		<path class="st0" d="M146.7,36.9c-0.2,0-0.4-0.1-0.6-0.2c-0.2-0.2-0.2-0.4-0.2-0.6c0-0.2,0.1-0.4,0.2-0.6c0.2-0.2,0.4-0.2,0.6-0.2
			c0.2,0,0.4,0.1,0.6,0.2c0.2,0.2,0.2,0.4,0.2,0.6c0,0.2-0.1,0.4-0.2,0.6C147.1,36.8,146.9,36.9,146.7,36.9z M147.4,43.9h-1.3v-6
			h1.3V43.9z"/>
		<path class="st0" d="M150.6,43.9h-1.3v-6h1.3v0.8c0.5-0.6,1.1-0.9,2-0.9c0.5,0,0.9,0.1,1.2,0.3c0.3,0.2,0.6,0.5,0.7,0.8
			c0.2-0.3,0.5-0.6,0.9-0.8c0.4-0.2,0.8-0.3,1.3-0.3c0.7,0,1.2,0.2,1.6,0.6c0.4,0.4,0.6,1,0.6,1.8v3.7h-1.3v-3.4
			c0-1-0.4-1.5-1.2-1.5c-0.3,0-0.6,0.1-0.9,0.3c-0.3,0.2-0.5,0.4-0.6,0.7v3.9h-1.3v-3.4c0-1-0.4-1.5-1.2-1.5c-0.3,0-0.6,0.1-0.9,0.3
			c-0.3,0.2-0.5,0.4-0.6,0.7V43.9z"/>
		<path class="st0" d="M163.3,44.1c-1,0-1.7-0.3-2.4-0.9c-0.6-0.6-0.9-1.4-0.9-2.2c0-0.9,0.3-1.6,0.9-2.2c0.6-0.6,1.4-0.9,2.4-0.9
			c0.9,0,1.7,0.3,2.3,0.9c0.6,0.6,0.9,1.3,0.9,2.2c0,0.9-0.3,1.6-0.9,2.2C165.1,43.8,164.3,44.1,163.3,44.1z M163.3,42.9
			c0.6,0,1-0.2,1.4-0.6c0.4-0.4,0.6-0.8,0.6-1.4c0-0.6-0.2-1-0.6-1.4c-0.4-0.4-0.8-0.6-1.4-0.6c-0.6,0-1,0.2-1.4,0.6
			c-0.4,0.4-0.6,0.8-0.6,1.4c0,0.6,0.2,1,0.6,1.4C162.3,42.7,162.8,42.9,163.3,42.9z M163.8,37h-1.2l1.2-1.7h1.6L163.8,37z"/>
		<path class="st0" d="M169.3,40v3.9H168v-6h1.3v0.8c0.6-0.6,1.3-0.9,2.2-0.9c0.7,0,1.2,0.2,1.6,0.7c0.4,0.4,0.6,1,0.6,1.8v3.6h-1.3
			v-3.3c0-1-0.5-1.5-1.4-1.5c-0.3,0-0.6,0.1-1,0.3C169.7,39.5,169.5,39.7,169.3,40z"/>
		<path class="st0" d="M176.2,36.9c-0.2,0-0.4-0.1-0.6-0.2c-0.2-0.2-0.2-0.4-0.2-0.6c0-0.2,0.1-0.4,0.2-0.6c0.2-0.2,0.4-0.2,0.6-0.2
			c0.2,0,0.4,0.1,0.6,0.2c0.2,0.2,0.2,0.4,0.2,0.6c0,0.2-0.1,0.4-0.2,0.6C176.6,36.8,176.4,36.9,176.2,36.9z M176.9,43.9h-1.3v-6
			h1.3V43.9z"/>
		<path class="st0" d="M181.3,44.1c-0.8,0-1.5-0.3-2.1-0.9c-0.5-0.6-0.8-1.3-0.8-2.2c0-0.9,0.3-1.6,0.8-2.2c0.5-0.6,1.2-0.9,2.1-0.9
			c0.9,0,1.6,0.3,2.1,1v-3.3h1.3v8.5h-1.3v-0.8C182.9,43.8,182.2,44.1,181.3,44.1z M181.6,42.9c0.4,0,0.7-0.1,1-0.3
			c0.3-0.2,0.6-0.5,0.7-0.8V40c-0.2-0.3-0.4-0.6-0.7-0.8c-0.3-0.2-0.7-0.3-1-0.3c-0.6,0-1,0.2-1.4,0.6c-0.4,0.4-0.5,0.8-0.5,1.4
			c0,0.6,0.2,1,0.5,1.4C180.6,42.7,181.1,42.9,181.6,42.9z"/>
		<path class="st0" d="M186.1,40.9c0-0.9,0.3-1.6,0.8-2.2c0.6-0.6,1.3-0.9,2.2-0.9c0.6,0,1.1,0.2,1.6,0.5c0.8,0.6,1.3,1.5,1.3,2.7
			v0.3h-4.6c0.1,0.5,0.3,0.9,0.7,1.2c0.4,0.3,0.9,0.4,1.5,0.4c0.7,0,1.3-0.2,1.9-0.5v1.1c-0.6,0.4-1.3,0.6-2.2,0.6
			c-0.9,0-1.7-0.3-2.3-0.9C186.4,42.6,186.1,41.9,186.1,40.9z M187.5,40.3h3.2c0-0.4-0.2-0.7-0.4-1c-0.3-0.3-0.7-0.4-1.1-0.4
			c-0.5,0-0.8,0.1-1.1,0.4C187.7,39.6,187.5,39.9,187.5,40.3z"/>
		<path class="st0" d="M195.6,44.1c-1.1,0-1.9-0.2-2.5-0.6v-1.2c0.7,0.5,1.5,0.7,2.4,0.7c0.4,0,0.7-0.1,1-0.2
			c0.2-0.1,0.3-0.3,0.3-0.5c0-0.2-0.1-0.4-0.4-0.5c-0.1,0-0.3-0.1-0.6-0.2l-0.7-0.2c-0.7-0.2-1.2-0.4-1.5-0.7
			c-0.3-0.3-0.5-0.7-0.5-1.2c0-0.5,0.2-1,0.7-1.3c0.4-0.3,1.1-0.5,1.9-0.5c0.9,0,1.6,0.2,2.2,0.5v1.2c-0.7-0.4-1.4-0.6-2.1-0.6
			c-0.4,0-0.7,0.1-0.9,0.2c-0.2,0.1-0.3,0.3-0.3,0.5c0,0.2,0.1,0.3,0.4,0.5c0,0,0.2,0.1,0.6,0.2l0.7,0.1c1.4,0.3,2,0.9,2,1.9
			c0,0.5-0.2,1-0.7,1.3C197,43.9,196.4,44.1,195.6,44.1z"/>
	</g>
	<g>
		<path class="st0" d="M78.5,40.2V29.1c0-2.1-0.6-3.7-1.7-4.9c-1.1-1.2-2.8-1.7-4.9-1.7c-0.6,0-1.1,0.1-1.7,0.2
			c-0.5,0.1-1.1,0.3-1.7,0.6c-0.6,0.3-1.1,0.5-1.4,0.7c-0.3,0.2-0.8,0.5-1.5,0.9c-0.7,0.4-1.1,0.7-1.1,0.7c-1.2-2.1-3.1-3.2-5.8-3.2
			c-0.3,0-0.7,0-1,0.1c-0.3,0.1-0.6,0.1-0.9,0.1c-0.3,0-0.6,0.1-0.9,0.3c-0.4,0.2-0.6,0.3-0.8,0.4c-0.2,0.1-0.5,0.2-0.9,0.5
			c-0.4,0.2-0.7,0.4-0.8,0.5c-0.1,0.1-0.4,0.3-0.9,0.6c-0.5,0.3-0.7,0.5-0.8,0.5l0-2.7l-0.3-0.3l-8.7,1.2v1.5l1.5,0.2
			c0.4,0.1,0.6,0.2,0.8,0.5c0.2,0.3,0.2,0.8,0.2,1.7v9c0,1-0.1,1.8-0.3,2.4c-0.2,0.5-0.6,1-1.2,1.4c-0.6,0.4-1.3,0.6-2.2,0.6
			c-2.4,0-3.3-1.5-3.3-4.6V22.8l-0.3-0.3l-8.7,1.2v1.5l1.5,0.2c0.4,0.1,0.6,0.2,0.8,0.5c0.2,0.3,0.2,0.8,0.2,1.7V38
			c0,2.3,0.6,3.9,1.8,4.9c1.2,1,2.6,1.5,4.4,1.5c0.9,0,1.7-0.1,2.5-0.4c0.8-0.2,1.2-0.5,1.7-0.7c0.5-0.2,1-0.6,1.8-1
			c0.7-0.4,1.2-0.7,1.3-0.8l0.3,2.4h8.9v-1.6c-1.2-0.1-2-0.2-2.3-0.4c-0.3-0.2-0.5-0.8-0.5-1.7l0-9.3c0-0.9,0.1-1.5,0.2-2
			c0.3-1,0.7-1.8,1.4-2.3c0.7-0.5,1.5-0.8,2.4-0.8c2,0,3,1.4,3.1,4.1v10.6c0,0.7-0.1,1.1-0.3,1.3c-0.2,0.2-0.6,0.3-1,0.4l-0.9,0.1
			v1.6h11v-1.6l-0.9-0.1c-0.5-0.1-0.8-0.2-1-0.4c-0.2-0.2-0.3-0.6-0.3-1.3v-9.6c0-0.9,0.1-1.6,0.2-2c0.3-1,0.7-1.7,1.3-2.3
			c0.6-0.5,1.4-0.8,2.2-0.8c1,0,1.8,0.3,2.4,1c0.6,0.7,0.9,1.7,0.9,3.1v10.6c0,0.7-0.1,1.1-0.3,1.3c-0.2,0.2-0.6,0.3-1,0.4l-0.9,0.1
			v1.6h11.5v-1.6c-1.2-0.1-2-0.2-2.3-0.4C78.6,41.6,78.5,41.1,78.5,40.2z"/>
		<path class="st0" d="M109.4,20.3c1,0,1.9-0.3,2.5-1c0.7-0.7,1-1.5,1-2.4c0-0.9-0.3-1.7-1-2.4c-0.7-0.6-1.5-1-2.6-1
			c-1,0-1.9,0.3-2.5,1c-0.6,0.7-1,1.4-1,2.4c0,0.9,0.3,1.7,1,2.4C107.5,20,108.4,20.3,109.4,20.3z"/>
		<path class="st0" d="M23.7,23.3c-0.6-0.5-1.5-0.8-2.5-0.8c-2.2,0.1-3.4,1.7-3.4,3.5c0.1,1.5,0.9,2.7,2.4,3.1l0,0
			c1.2,0.4,2.1,0.9,2.5,1.5c1,1.5,1.4,3.4,1.1,6c-0.1,0.5,0.3,0.9,0.7,1c0.5,0.1,0.9-0.3,1-0.7c1.5-5.5,1.4-9.4-0.4-11.9
			C24.7,24.3,24.2,23.7,23.7,23.3z"/>
		<path class="st0" d="M117.5,40.4c-0.5,0.4-1,0.7-1.7,0.7c-2,0-2.9-1.3-2.9-4.1V22.8l-0.3-0.3l-8.7,1.2v1.5l1.5,0.2
			c0.4,0.1,0.6,0.2,0.8,0.5c0.2,0.3,0.2,0.8,0.2,1.7l0,4.3v4.7c0,1-0.1,1.8-0.3,2.4c-0.2,0.5-0.6,1-1.2,1.4
			c-0.6,0.4-1.3,0.6-2.2,0.6c-2.4,0-3.3-1.5-3.3-4.6V32l0-3.5c0-0.7,0-1.2-0.1-1.7c-0.1-0.5-0.3-1-0.6-1.6c-0.3-0.6-0.7-1.1-1.2-1.4
			c-0.5-0.4-1.3-0.7-2.3-0.9c-1-0.3-2.3-0.4-3.7-0.4c-3,0-5.5,0.5-7.3,1.5c-1.8,1-2.8,2.3-2.8,3.7c0,0.9,0.4,1.5,1.3,2
			c0.9,0.5,1.7,0.7,2.5,0.7c0.8,0,1.4-0.6,1.7-1.7c0.9-2.8,2.2-4.3,3.8-4.3c1.6,0,2.5,1.1,2.5,3.2v2.3c-0.3,0.2-0.6,0.4-1.1,0.6
			c-0.4,0.2-1,0.4-1.6,0.7c-0.6,0.2-1.2,0.4-1.6,0.6c-0.5,0.1-1.1,0.3-1.9,0.6c-0.8,0.3-1.4,0.5-1.7,0.6c-3,1-4.5,2.8-4.5,5.3
			c0,1.7,0.6,3.2,1.7,4.4c1.1,1.2,2.7,1.8,4.8,1.8c0.7,0,1.4-0.2,2.1-0.4c0.8-0.2,1.2-0.5,1.7-0.7c0.5-0.2,1-0.6,1.8-1
			c0.6-0.3,1-0.6,1.2-0.7c0.2,0.4,0.5,0.7,0.8,1c1.1,1.2,2.2,1.7,4.4,1.7h0.1c0.9,0,1.7-0.1,2.5-0.4c0.8-0.2,1.2-0.5,1.7-0.7
			c0.5-0.2,1-0.6,1.8-1c0.7-0.4,1.3-0.8,1.5-0.9c1.2,2,3.5,3,6.1,3c3.5,0,6.2-2.6,6.5-2.8L117.5,40.4z M93.1,38.2
			c0,1.1-0.3,1.8-0.8,2.2c-0.5,0.4-1.1,0.7-1.8,0.7c-0.9,0-1.6-0.3-2.2-1c-0.6-0.7-0.9-1.5-0.9-2.6c0-1.7,0.7-3,2-3.7
			c0.2-0.1,1.5-0.7,3.8-1.8V38.2z"/>
	</g>
</g>
</svg>
